<svg viewBox="0 0 24 24" width="48" height="48" xmlns="http://www.w3.org/2000/svg">
  <defs>
                                                                                                                <pattern id="heatmap" x="0" y="0" width="24" height="24" patternUnits="userSpaceOnUse">
      <!-- Row 1 -->
      <rect width="1.3" height="1.3" x="0.0" y="0.0" fill="#26a641" rx="0.26" stroke="#fff" stroke-width="0.1" />
      <rect width="1.3" height="1.3" x="1.4" y="0.0" fill="#006d32" rx="0.26" stroke="#fff" stroke-width="0.1" />
      <rect width="1.3" height="1.3" x="2.8" y="0.0" fill="#26a641" rx="0.26" stroke="#fff" stroke-width="0.1" />
      <rect width="1.3" height="1.3" x="4.199999999999999" y="0.0" fill="#39d353" rx="0.26" stroke="#fff" stroke-width="0.1" />
      <rect width="1.3" height="1.3" x="5.6" y="0.0" fill="#26a641" rx="0.26" stroke="#fff" stroke-width="0.1" />
      <rect width="1.3" height="1.3" x="7.0" y="0.0" fill="#39d353" rx="0.26" stroke="#fff" stroke-width="0.1" />
      <rect width="1.3" height="1.3" x="8.399999999999999" y="0.0" fill="#39d353" rx="0.26" stroke="#fff" stroke-width="0.1" />
      <rect width="1.3" height="1.3" x="9.799999999999999" y="0.0" fill="#26a641" rx="0.26" stroke="#fff" stroke-width="0.1" />
      <rect width="1.3" height="1.3" x="11.2" y="0.0" fill="#006d32" rx="0.26" stroke="#fff" stroke-width="0.1" />
      <rect width="1.3" height="1.3" x="12.6" y="0.0" fill="#006d32" rx="0.26" stroke="#fff" stroke-width="0.1" />
      <rect width="1.3" height="1.3" x="14.0" y="0.0" fill="#006d32" rx="0.26" stroke="#fff" stroke-width="0.1" />
      <rect width="1.3" height="1.3" x="15.399999999999999" y="0.0" fill="#26a641" rx="0.26" stroke="#fff" stroke-width="0.1" />
      <rect width="1.3" height="1.3" x="16.799999999999997" y="0.0" fill="#39d353" rx="0.26" stroke="#fff" stroke-width="0.1" />
      <rect width="1.3" height="1.3" x="18.2" y="0.0" fill="#39d353" rx="0.26" stroke="#fff" stroke-width="0.1" />
      <rect width="1.3" height="1.3" x="19.599999999999998" y="0.0" fill="#26a641" rx="0.26" stroke="#fff" stroke-width="0.1" />
      <rect width="1.3" height="1.3" x="21.0" y="0.0" fill="#006d32" rx="0.26" stroke="#fff" stroke-width="0.1" />
      <rect width="1.3" height="1.3" x="22.4" y="0.0" fill="#26a641" rx="0.26" stroke="#fff" stroke-width="0.1" />

      <!-- Row 2 -->
      <rect width="1.3" height="1.3" x="0.0" y="1.4" fill="#26a641" rx="0.26" stroke="#fff" stroke-width="0.1" />
      <rect width="1.3" height="1.3" x="1.4" y="1.4" fill="#39d353" rx="0.26" stroke="#fff" stroke-width="0.1" />
      <rect width="1.3" height="1.3" x="2.8" y="1.4" fill="#006d32" rx="0.26" stroke="#fff" stroke-width="0.1" />
      <rect width="1.3" height="1.3" x="4.199999999999999" y="1.4" fill="#26a641" rx="0.26" stroke="#fff" stroke-width="0.1" />
      <rect width="1.3" height="1.3" x="5.6" y="1.4" fill="#26a641" rx="0.26" stroke="#fff" stroke-width="0.1" />
      <rect width="1.3" height="1.3" x="7.0" y="1.4" fill="#26a641" rx="0.26" stroke="#fff" stroke-width="0.1" />
      <rect width="1.3" height="1.3" x="8.399999999999999" y="1.4" fill="#006d32" rx="0.26" stroke="#fff" stroke-width="0.1" />
      <rect width="1.3" height="1.3" x="9.799999999999999" y="1.4" fill="#006d32" rx="0.26" stroke="#fff" stroke-width="0.1" />
      <rect width="1.3" height="1.3" x="11.2" y="1.4" fill="#006d32" rx="0.26" stroke="#fff" stroke-width="0.1" />
      <rect width="1.3" height="1.3" x="12.6" y="1.4" fill="#26a641" rx="0.26" stroke="#fff" stroke-width="0.1" />
      <rect width="1.3" height="1.3" x="14.0" y="1.4" fill="#39d353" rx="0.26" stroke="#fff" stroke-width="0.1" />
      <rect width="1.3" height="1.3" x="15.399999999999999" y="1.4" fill="#26a641" rx="0.26" stroke="#fff" stroke-width="0.1" />
      <rect width="1.3" height="1.3" x="16.799999999999997" y="1.4" fill="#39d353" rx="0.26" stroke="#fff" stroke-width="0.1" />
      <rect width="1.3" height="1.3" x="18.2" y="1.4" fill="#39d353" rx="0.26" stroke="#fff" stroke-width="0.1" />
      <rect width="1.3" height="1.3" x="19.599999999999998" y="1.4" fill="#006d32" rx="0.26" stroke="#fff" stroke-width="0.1" />
      <rect width="1.3" height="1.3" x="21.0" y="1.4" fill="#006d32" rx="0.26" stroke="#fff" stroke-width="0.1" />
      <rect width="1.3" height="1.3" x="22.4" y="1.4" fill="#26a641" rx="0.26" stroke="#fff" stroke-width="0.1" />

      <!-- Row 3 -->
      <rect width="1.3" height="1.3" x="0.0" y="2.8" fill="#006d32" rx="0.26" stroke="#fff" stroke-width="0.1" />
      <rect width="1.3" height="1.3" x="1.4" y="2.8" fill="#26a641" rx="0.26" stroke="#fff" stroke-width="0.1" />
      <rect width="1.3" height="1.3" x="2.8" y="2.8" fill="#26a641" rx="0.26" stroke="#fff" stroke-width="0.1" />
      <rect width="1.3" height="1.3" x="4.199999999999999" y="2.8" fill="#26a641" rx="0.26" stroke="#fff" stroke-width="0.1" />
      <rect width="1.3" height="1.3" x="5.6" y="2.8" fill="#26a641" rx="0.26" stroke="#fff" stroke-width="0.1" />
      <rect width="1.3" height="1.3" x="7.0" y="2.8" fill="#006d32" rx="0.26" stroke="#fff" stroke-width="0.1" />
      <rect width="1.3" height="1.3" x="8.399999999999999" y="2.8" fill="#006d32" rx="0.26" stroke="#fff" stroke-width="0.1" />
      <rect width="1.3" height="1.3" x="9.799999999999999" y="2.8" fill="#26a641" rx="0.26" stroke="#fff" stroke-width="0.1" />
      <rect width="1.3" height="1.3" x="11.2" y="2.8" fill="#006d32" rx="0.26" stroke="#fff" stroke-width="0.1" />
      <rect width="1.3" height="1.3" x="12.6" y="2.8" fill="#26a641" rx="0.26" stroke="#fff" stroke-width="0.1" />
      <rect width="1.3" height="1.3" x="14.0" y="2.8" fill="#26a641" rx="0.26" stroke="#fff" stroke-width="0.1" />
      <rect width="1.3" height="1.3" x="15.399999999999999" y="2.8" fill="#006d32" rx="0.26" stroke="#fff" stroke-width="0.1" />
      <rect width="1.3" height="1.3" x="16.799999999999997" y="2.8" fill="#39d353" rx="0.26" stroke="#fff" stroke-width="0.1" />
      <rect width="1.3" height="1.3" x="18.2" y="2.8" fill="#006d32" rx="0.26" stroke="#fff" stroke-width="0.1" />
      <rect width="1.3" height="1.3" x="19.599999999999998" y="2.8" fill="#39d353" rx="0.26" stroke="#fff" stroke-width="0.1" />
      <rect width="1.3" height="1.3" x="21.0" y="2.8" fill="#006d32" rx="0.26" stroke="#fff" stroke-width="0.1" />
      <rect width="1.3" height="1.3" x="22.4" y="2.8" fill="#26a641" rx="0.26" stroke="#fff" stroke-width="0.1" />

      <!-- Row 4 -->
      <rect width="1.3" height="1.3" x="0.0" y="4.199999999999999" fill="#39d353" rx="0.26" stroke="#fff" stroke-width="0.1" />
      <rect width="1.3" height="1.3" x="1.4" y="4.199999999999999" fill="#26a641" rx="0.26" stroke="#fff" stroke-width="0.1" />
      <rect width="1.3" height="1.3" x="2.8" y="4.199999999999999" fill="#26a641" rx="0.26" stroke="#fff" stroke-width="0.1" />
      <rect width="1.3" height="1.3" x="4.199999999999999" y="4.199999999999999" fill="#39d353" rx="0.26" stroke="#fff" stroke-width="0.1" />
      <rect width="1.3" height="1.3" x="5.6" y="4.199999999999999" fill="#006d32" rx="0.26" stroke="#fff" stroke-width="0.1" />
      <rect width="1.3" height="1.3" x="7.0" y="4.199999999999999" fill="#39d353" rx="0.26" stroke="#fff" stroke-width="0.1" />
      <rect width="1.3" height="1.3" x="8.399999999999999" y="4.199999999999999" fill="#39d353" rx="0.26" stroke="#fff" stroke-width="0.1" />
      <rect width="1.3" height="1.3" x="9.799999999999999" y="4.199999999999999" fill="#39d353" rx="0.26" stroke="#fff" stroke-width="0.1" />
      <rect width="1.3" height="1.3" x="11.2" y="4.199999999999999" fill="#26a641" rx="0.26" stroke="#fff" stroke-width="0.1" />
      <rect width="1.3" height="1.3" x="12.6" y="4.199999999999999" fill="#39d353" rx="0.26" stroke="#fff" stroke-width="0.1" />
      <rect width="1.3" height="1.3" x="14.0" y="4.199999999999999" fill="#006d32" rx="0.26" stroke="#fff" stroke-width="0.1" />
      <rect width="1.3" height="1.3" x="15.399999999999999" y="4.199999999999999" fill="#26a641" rx="0.26" stroke="#fff" stroke-width="0.1" />
      <rect width="1.3" height="1.3" x="16.799999999999997" y="4.199999999999999" fill="#006d32" rx="0.26" stroke="#fff" stroke-width="0.1" />
      <rect width="1.3" height="1.3" x="18.2" y="4.199999999999999" fill="#39d353" rx="0.26" stroke="#fff" stroke-width="0.1" />
      <rect width="1.3" height="1.3" x="19.599999999999998" y="4.199999999999999" fill="#39d353" rx="0.26" stroke="#fff" stroke-width="0.1" />
      <rect width="1.3" height="1.3" x="21.0" y="4.199999999999999" fill="#39d353" rx="0.26" stroke="#fff" stroke-width="0.1" />
      <rect width="1.3" height="1.3" x="22.4" y="4.199999999999999" fill="#006d32" rx="0.26" stroke="#fff" stroke-width="0.1" />

      <!-- Row 5 -->
      <rect width="1.3" height="1.3" x="0.0" y="5.6" fill="#006d32" rx="0.26" stroke="#fff" stroke-width="0.1" />
      <rect width="1.3" height="1.3" x="1.4" y="5.6" fill="#26a641" rx="0.26" stroke="#fff" stroke-width="0.1" />
      <rect width="1.3" height="1.3" x="2.8" y="5.6" fill="#39d353" rx="0.26" stroke="#fff" stroke-width="0.1" />
      <rect width="1.3" height="1.3" x="4.199999999999999" y="5.6" fill="#39d353" rx="0.26" stroke="#fff" stroke-width="0.1" />
      <rect width="1.3" height="1.3" x="5.6" y="5.6" fill="#006d32" rx="0.26" stroke="#fff" stroke-width="0.1" />
      <rect width="1.3" height="1.3" x="7.0" y="5.6" fill="#26a641" rx="0.26" stroke="#fff" stroke-width="0.1" />
      <rect width="1.3" height="1.3" x="8.399999999999999" y="5.6" fill="#26a641" rx="0.26" stroke="#fff" stroke-width="0.1" />
      <rect width="1.3" height="1.3" x="9.799999999999999" y="5.6" fill="#39d353" rx="0.26" stroke="#fff" stroke-width="0.1" />
      <rect width="1.3" height="1.3" x="11.2" y="5.6" fill="#26a641" rx="0.26" stroke="#fff" stroke-width="0.1" />
      <rect width="1.3" height="1.3" x="12.6" y="5.6" fill="#39d353" rx="0.26" stroke="#fff" stroke-width="0.1" />
      <rect width="1.3" height="1.3" x="14.0" y="5.6" fill="#39d353" rx="0.26" stroke="#fff" stroke-width="0.1" />
      <rect width="1.3" height="1.3" x="15.399999999999999" y="5.6" fill="#006d32" rx="0.26" stroke="#fff" stroke-width="0.1" />
      <rect width="1.3" height="1.3" x="16.799999999999997" y="5.6" fill="#006d32" rx="0.26" stroke="#fff" stroke-width="0.1" />
      <rect width="1.3" height="1.3" x="18.2" y="5.6" fill="#39d353" rx="0.26" stroke="#fff" stroke-width="0.1" />
      <rect width="1.3" height="1.3" x="19.599999999999998" y="5.6" fill="#39d353" rx="0.26" stroke="#fff" stroke-width="0.1" />
      <rect width="1.3" height="1.3" x="21.0" y="5.6" fill="#39d353" rx="0.26" stroke="#fff" stroke-width="0.1" />
      <rect width="1.3" height="1.3" x="22.4" y="5.6" fill="#39d353" rx="0.26" stroke="#fff" stroke-width="0.1" />

      <!-- Row 6 -->
      <rect width="1.3" height="1.3" x="0.0" y="7.0" fill="#26a641" rx="0.26" stroke="#fff" stroke-width="0.1" />
      <rect width="1.3" height="1.3" x="1.4" y="7.0" fill="#26a641" rx="0.26" stroke="#fff" stroke-width="0.1" />
      <rect width="1.3" height="1.3" x="2.8" y="7.0" fill="#26a641" rx="0.26" stroke="#fff" stroke-width="0.1" />
      <rect width="1.3" height="1.3" x="4.199999999999999" y="7.0" fill="#26a641" rx="0.26" stroke="#fff" stroke-width="0.1" />
      <rect width="1.3" height="1.3" x="5.6" y="7.0" fill="#006d32" rx="0.26" stroke="#fff" stroke-width="0.1" />
      <rect width="1.3" height="1.3" x="7.0" y="7.0" fill="#006d32" rx="0.26" stroke="#fff" stroke-width="0.1" />
      <rect width="1.3" height="1.3" x="8.399999999999999" y="7.0" fill="#39d353" rx="0.26" stroke="#fff" stroke-width="0.1" />
      <rect width="1.3" height="1.3" x="9.799999999999999" y="7.0" fill="#39d353" rx="0.26" stroke="#fff" stroke-width="0.1" />
      <rect width="1.3" height="1.3" x="11.2" y="7.0" fill="#006d32" rx="0.26" stroke="#fff" stroke-width="0.1" />
      <rect width="1.3" height="1.3" x="12.6" y="7.0" fill="#26a641" rx="0.26" stroke="#fff" stroke-width="0.1" />
      <rect width="1.3" height="1.3" x="14.0" y="7.0" fill="#006d32" rx="0.26" stroke="#fff" stroke-width="0.1" />
      <rect width="1.3" height="1.3" x="15.399999999999999" y="7.0" fill="#006d32" rx="0.26" stroke="#fff" stroke-width="0.1" />
      <rect width="1.3" height="1.3" x="16.799999999999997" y="7.0" fill="#006d32" rx="0.26" stroke="#fff" stroke-width="0.1" />
      <rect width="1.3" height="1.3" x="18.2" y="7.0" fill="#39d353" rx="0.26" stroke="#fff" stroke-width="0.1" />
      <rect width="1.3" height="1.3" x="19.599999999999998" y="7.0" fill="#39d353" rx="0.26" stroke="#fff" stroke-width="0.1" />
      <rect width="1.3" height="1.3" x="21.0" y="7.0" fill="#006d32" rx="0.26" stroke="#fff" stroke-width="0.1" />
      <rect width="1.3" height="1.3" x="22.4" y="7.0" fill="#26a641" rx="0.26" stroke="#fff" stroke-width="0.1" />

      <!-- Row 7 -->
      <rect width="1.3" height="1.3" x="0.0" y="8.399999999999999" fill="#39d353" rx="0.26" stroke="#fff" stroke-width="0.1" />
      <rect width="1.3" height="1.3" x="1.4" y="8.399999999999999" fill="#26a641" rx="0.26" stroke="#fff" stroke-width="0.1" />
      <rect width="1.3" height="1.3" x="2.8" y="8.399999999999999" fill="#39d353" rx="0.26" stroke="#fff" stroke-width="0.1" />
      <rect width="1.3" height="1.3" x="4.199999999999999" y="8.399999999999999" fill="#006d32" rx="0.26" stroke="#fff" stroke-width="0.1" />
      <rect width="1.3" height="1.3" x="5.6" y="8.399999999999999" fill="#006d32" rx="0.26" stroke="#fff" stroke-width="0.1" />
      <rect width="1.3" height="1.3" x="7.0" y="8.399999999999999" fill="#006d32" rx="0.26" stroke="#fff" stroke-width="0.1" />
      <rect width="1.3" height="1.3" x="8.399999999999999" y="8.399999999999999" fill="#26a641" rx="0.26" stroke="#fff" stroke-width="0.1" />
      <rect width="1.3" height="1.3" x="9.799999999999999" y="8.399999999999999" fill="#26a641" rx="0.26" stroke="#fff" stroke-width="0.1" />
      <rect width="1.3" height="1.3" x="11.2" y="8.399999999999999" fill="#26a641" rx="0.26" stroke="#fff" stroke-width="0.1" />
      <rect width="1.3" height="1.3" x="12.6" y="8.399999999999999" fill="#006d32" rx="0.26" stroke="#fff" stroke-width="0.1" />
      <rect width="1.3" height="1.3" x="14.0" y="8.399999999999999" fill="#006d32" rx="0.26" stroke="#fff" stroke-width="0.1" />
      <rect width="1.3" height="1.3" x="15.399999999999999" y="8.399999999999999" fill="#26a641" rx="0.26" stroke="#fff" stroke-width="0.1" />
      <rect width="1.3" height="1.3" x="16.799999999999997" y="8.399999999999999" fill="#26a641" rx="0.26" stroke="#fff" stroke-width="0.1" />
      <rect width="1.3" height="1.3" x="18.2" y="8.399999999999999" fill="#26a641" rx="0.26" stroke="#fff" stroke-width="0.1" />
      <rect width="1.3" height="1.3" x="19.599999999999998" y="8.399999999999999" fill="#26a641" rx="0.26" stroke="#fff" stroke-width="0.1" />
      <rect width="1.3" height="1.3" x="21.0" y="8.399999999999999" fill="#006d32" rx="0.26" stroke="#fff" stroke-width="0.1" />
      <rect width="1.3" height="1.3" x="22.4" y="8.399999999999999" fill="#26a641" rx="0.26" stroke="#fff" stroke-width="0.1" />

      <!-- Row 8 -->
      <rect width="1.3" height="1.3" x="0.0" y="9.799999999999999" fill="#39d353" rx="0.26" stroke="#fff" stroke-width="0.1" />
      <rect width="1.3" height="1.3" x="1.4" y="9.799999999999999" fill="#39d353" rx="0.26" stroke="#fff" stroke-width="0.1" />
      <rect width="1.3" height="1.3" x="2.8" y="9.799999999999999" fill="#39d353" rx="0.26" stroke="#fff" stroke-width="0.1" />
      <rect width="1.3" height="1.3" x="4.199999999999999" y="9.799999999999999" fill="#39d353" rx="0.26" stroke="#fff" stroke-width="0.1" />
      <rect width="1.3" height="1.3" x="5.6" y="9.799999999999999" fill="#006d32" rx="0.26" stroke="#fff" stroke-width="0.1" />
      <rect width="1.3" height="1.3" x="7.0" y="9.799999999999999" fill="#39d353" rx="0.26" stroke="#fff" stroke-width="0.1" />
      <rect width="1.3" height="1.3" x="8.399999999999999" y="9.799999999999999" fill="#006d32" rx="0.26" stroke="#fff" stroke-width="0.1" />
      <rect width="1.3" height="1.3" x="9.799999999999999" y="9.799999999999999" fill="#006d32" rx="0.26" stroke="#fff" stroke-width="0.1" />
      <rect width="1.3" height="1.3" x="11.2" y="9.799999999999999" fill="#006d32" rx="0.26" stroke="#fff" stroke-width="0.1" />
      <rect width="1.3" height="1.3" x="12.6" y="9.799999999999999" fill="#006d32" rx="0.26" stroke="#fff" stroke-width="0.1" />
      <rect width="1.3" height="1.3" x="14.0" y="9.799999999999999" fill="#26a641" rx="0.26" stroke="#fff" stroke-width="0.1" />
      <rect width="1.3" height="1.3" x="15.399999999999999" y="9.799999999999999" fill="#39d353" rx="0.26" stroke="#fff" stroke-width="0.1" />
      <rect width="1.3" height="1.3" x="16.799999999999997" y="9.799999999999999" fill="#39d353" rx="0.26" stroke="#fff" stroke-width="0.1" />
      <rect width="1.3" height="1.3" x="18.2" y="9.799999999999999" fill="#39d353" rx="0.26" stroke="#fff" stroke-width="0.1" />
      <rect width="1.3" height="1.3" x="19.599999999999998" y="9.799999999999999" fill="#26a641" rx="0.26" stroke="#fff" stroke-width="0.1" />
      <rect width="1.3" height="1.3" x="21.0" y="9.799999999999999" fill="#26a641" rx="0.26" stroke="#fff" stroke-width="0.1" />
      <rect width="1.3" height="1.3" x="22.4" y="9.799999999999999" fill="#39d353" rx="0.26" stroke="#fff" stroke-width="0.1" />

      <!-- Row 9 -->
      <rect width="1.3" height="1.3" x="0.0" y="11.2" fill="#006d32" rx="0.26" stroke="#fff" stroke-width="0.1" />
      <rect width="1.3" height="1.3" x="1.4" y="11.2" fill="#26a641" rx="0.26" stroke="#fff" stroke-width="0.1" />
      <rect width="1.3" height="1.3" x="2.8" y="11.2" fill="#006d32" rx="0.26" stroke="#fff" stroke-width="0.1" />
      <rect width="1.3" height="1.3" x="4.199999999999999" y="11.2" fill="#006d32" rx="0.26" stroke="#fff" stroke-width="0.1" />
      <rect width="1.3" height="1.3" x="5.6" y="11.2" fill="#26a641" rx="0.26" stroke="#fff" stroke-width="0.1" />
      <rect width="1.3" height="1.3" x="7.0" y="11.2" fill="#39d353" rx="0.26" stroke="#fff" stroke-width="0.1" />
      <rect width="1.3" height="1.3" x="8.399999999999999" y="11.2" fill="#26a641" rx="0.26" stroke="#fff" stroke-width="0.1" />
      <rect width="1.3" height="1.3" x="9.799999999999999" y="11.2" fill="#39d353" rx="0.26" stroke="#fff" stroke-width="0.1" />
      <rect width="1.3" height="1.3" x="11.2" y="11.2" fill="#26a641" rx="0.26" stroke="#fff" stroke-width="0.1" />
      <rect width="1.3" height="1.3" x="12.6" y="11.2" fill="#39d353" rx="0.26" stroke="#fff" stroke-width="0.1" />
      <rect width="1.3" height="1.3" x="14.0" y="11.2" fill="#26a641" rx="0.26" stroke="#fff" stroke-width="0.1" />
      <rect width="1.3" height="1.3" x="15.399999999999999" y="11.2" fill="#39d353" rx="0.26" stroke="#fff" stroke-width="0.1" />
      <rect width="1.3" height="1.3" x="16.799999999999997" y="11.2" fill="#39d353" rx="0.26" stroke="#fff" stroke-width="0.1" />
      <rect width="1.3" height="1.3" x="18.2" y="11.2" fill="#26a641" rx="0.26" stroke="#fff" stroke-width="0.1" />
      <rect width="1.3" height="1.3" x="19.599999999999998" y="11.2" fill="#39d353" rx="0.26" stroke="#fff" stroke-width="0.1" />
      <rect width="1.3" height="1.3" x="21.0" y="11.2" fill="#26a641" rx="0.26" stroke="#fff" stroke-width="0.1" />
      <rect width="1.3" height="1.3" x="22.4" y="11.2" fill="#26a641" rx="0.26" stroke="#fff" stroke-width="0.1" />

      <!-- Row 10 -->
      <rect width="1.3" height="1.3" x="0.0" y="12.6" fill="#006d32" rx="0.26" stroke="#fff" stroke-width="0.1" />
      <rect width="1.3" height="1.3" x="1.4" y="12.6" fill="#26a641" rx="0.26" stroke="#fff" stroke-width="0.1" />
      <rect width="1.3" height="1.3" x="2.8" y="12.6" fill="#26a641" rx="0.26" stroke="#fff" stroke-width="0.1" />
      <rect width="1.3" height="1.3" x="4.199999999999999" y="12.6" fill="#26a641" rx="0.26" stroke="#fff" stroke-width="0.1" />
      <rect width="1.3" height="1.3" x="5.6" y="12.6" fill="#26a641" rx="0.26" stroke="#fff" stroke-width="0.1" />
      <rect width="1.3" height="1.3" x="7.0" y="12.6" fill="#26a641" rx="0.26" stroke="#fff" stroke-width="0.1" />
      <rect width="1.3" height="1.3" x="8.399999999999999" y="12.6" fill="#26a641" rx="0.26" stroke="#fff" stroke-width="0.1" />
      <rect width="1.3" height="1.3" x="9.799999999999999" y="12.6" fill="#39d353" rx="0.26" stroke="#fff" stroke-width="0.1" />
      <rect width="1.3" height="1.3" x="11.2" y="12.6" fill="#006d32" rx="0.26" stroke="#fff" stroke-width="0.1" />
      <rect width="1.3" height="1.3" x="12.6" y="12.6" fill="#39d353" rx="0.26" stroke="#fff" stroke-width="0.1" />
      <rect width="1.3" height="1.3" x="14.0" y="12.6" fill="#006d32" rx="0.26" stroke="#fff" stroke-width="0.1" />
      <rect width="1.3" height="1.3" x="15.399999999999999" y="12.6" fill="#26a641" rx="0.26" stroke="#fff" stroke-width="0.1" />
      <rect width="1.3" height="1.3" x="16.799999999999997" y="12.6" fill="#39d353" rx="0.26" stroke="#fff" stroke-width="0.1" />
      <rect width="1.3" height="1.3" x="18.2" y="12.6" fill="#39d353" rx="0.26" stroke="#fff" stroke-width="0.1" />
      <rect width="1.3" height="1.3" x="19.599999999999998" y="12.6" fill="#39d353" rx="0.26" stroke="#fff" stroke-width="0.1" />
      <rect width="1.3" height="1.3" x="21.0" y="12.6" fill="#26a641" rx="0.26" stroke="#fff" stroke-width="0.1" />
      <rect width="1.3" height="1.3" x="22.4" y="12.6" fill="#26a641" rx="0.26" stroke="#fff" stroke-width="0.1" />

      <!-- Row 11 -->
      <rect width="1.3" height="1.3" x="0.0" y="14.0" fill="#006d32" rx="0.26" stroke="#fff" stroke-width="0.1" />
      <rect width="1.3" height="1.3" x="1.4" y="14.0" fill="#006d32" rx="0.26" stroke="#fff" stroke-width="0.1" />
      <rect width="1.3" height="1.3" x="2.8" y="14.0" fill="#006d32" rx="0.26" stroke="#fff" stroke-width="0.1" />
      <rect width="1.3" height="1.3" x="4.199999999999999" y="14.0" fill="#26a641" rx="0.26" stroke="#fff" stroke-width="0.1" />
      <rect width="1.3" height="1.3" x="5.6" y="14.0" fill="#39d353" rx="0.26" stroke="#fff" stroke-width="0.1" />
      <rect width="1.3" height="1.3" x="7.0" y="14.0" fill="#26a641" rx="0.26" stroke="#fff" stroke-width="0.1" />
      <rect width="1.3" height="1.3" x="8.399999999999999" y="14.0" fill="#26a641" rx="0.26" stroke="#fff" stroke-width="0.1" />
      <rect width="1.3" height="1.3" x="9.799999999999999" y="14.0" fill="#39d353" rx="0.26" stroke="#fff" stroke-width="0.1" />
      <rect width="1.3" height="1.3" x="11.2" y="14.0" fill="#39d353" rx="0.26" stroke="#fff" stroke-width="0.1" />
      <rect width="1.3" height="1.3" x="12.6" y="14.0" fill="#006d32" rx="0.26" stroke="#fff" stroke-width="0.1" />
      <rect width="1.3" height="1.3" x="14.0" y="14.0" fill="#006d32" rx="0.26" stroke="#fff" stroke-width="0.1" />
      <rect width="1.3" height="1.3" x="15.399999999999999" y="14.0" fill="#39d353" rx="0.26" stroke="#fff" stroke-width="0.1" />
      <rect width="1.3" height="1.3" x="16.799999999999997" y="14.0" fill="#39d353" rx="0.26" stroke="#fff" stroke-width="0.1" />
      <rect width="1.3" height="1.3" x="18.2" y="14.0" fill="#39d353" rx="0.26" stroke="#fff" stroke-width="0.1" />
      <rect width="1.3" height="1.3" x="19.599999999999998" y="14.0" fill="#26a641" rx="0.26" stroke="#fff" stroke-width="0.1" />
      <rect width="1.3" height="1.3" x="21.0" y="14.0" fill="#006d32" rx="0.26" stroke="#fff" stroke-width="0.1" />
      <rect width="1.3" height="1.3" x="22.4" y="14.0" fill="#39d353" rx="0.26" stroke="#fff" stroke-width="0.1" />

      <!-- Row 12 -->
      <rect width="1.3" height="1.3" x="0.0" y="15.399999999999999" fill="#39d353" rx="0.26" stroke="#fff" stroke-width="0.1" />
      <rect width="1.3" height="1.3" x="1.4" y="15.399999999999999" fill="#006d32" rx="0.26" stroke="#fff" stroke-width="0.1" />
      <rect width="1.3" height="1.3" x="2.8" y="15.399999999999999" fill="#006d32" rx="0.26" stroke="#fff" stroke-width="0.1" />
      <rect width="1.3" height="1.3" x="4.199999999999999" y="15.399999999999999" fill="#006d32" rx="0.26" stroke="#fff" stroke-width="0.1" />
      <rect width="1.3" height="1.3" x="5.6" y="15.399999999999999" fill="#006d32" rx="0.26" stroke="#fff" stroke-width="0.1" />
      <rect width="1.3" height="1.3" x="7.0" y="15.399999999999999" fill="#006d32" rx="0.26" stroke="#fff" stroke-width="0.1" />
      <rect width="1.3" height="1.3" x="8.399999999999999" y="15.399999999999999" fill="#26a641" rx="0.26" stroke="#fff" stroke-width="0.1" />
      <rect width="1.3" height="1.3" x="9.799999999999999" y="15.399999999999999" fill="#006d32" rx="0.26" stroke="#fff" stroke-width="0.1" />
      <rect width="1.3" height="1.3" x="11.2" y="15.399999999999999" fill="#006d32" rx="0.26" stroke="#fff" stroke-width="0.1" />
      <rect width="1.3" height="1.3" x="12.6" y="15.399999999999999" fill="#26a641" rx="0.26" stroke="#fff" stroke-width="0.1" />
      <rect width="1.3" height="1.3" x="14.0" y="15.399999999999999" fill="#39d353" rx="0.26" stroke="#fff" stroke-width="0.1" />
      <rect width="1.3" height="1.3" x="15.399999999999999" y="15.399999999999999" fill="#26a641" rx="0.26" stroke="#fff" stroke-width="0.1" />
      <rect width="1.3" height="1.3" x="16.799999999999997" y="15.399999999999999" fill="#006d32" rx="0.26" stroke="#fff" stroke-width="0.1" />
      <rect width="1.3" height="1.3" x="18.2" y="15.399999999999999" fill="#39d353" rx="0.26" stroke="#fff" stroke-width="0.1" />
      <rect width="1.3" height="1.3" x="19.599999999999998" y="15.399999999999999" fill="#39d353" rx="0.26" stroke="#fff" stroke-width="0.1" />
      <rect width="1.3" height="1.3" x="21.0" y="15.399999999999999" fill="#006d32" rx="0.26" stroke="#fff" stroke-width="0.1" />
      <rect width="1.3" height="1.3" x="22.4" y="15.399999999999999" fill="#006d32" rx="0.26" stroke="#fff" stroke-width="0.1" />

      <!-- Row 13 -->
      <rect width="1.3" height="1.3" x="0.0" y="16.799999999999997" fill="#39d353" rx="0.26" stroke="#fff" stroke-width="0.1" />
      <rect width="1.3" height="1.3" x="1.4" y="16.799999999999997" fill="#006d32" rx="0.26" stroke="#fff" stroke-width="0.1" />
      <rect width="1.3" height="1.3" x="2.8" y="16.799999999999997" fill="#006d32" rx="0.26" stroke="#fff" stroke-width="0.1" />
      <rect width="1.3" height="1.3" x="4.199999999999999" y="16.799999999999997" fill="#39d353" rx="0.26" stroke="#fff" stroke-width="0.1" />
      <rect width="1.3" height="1.3" x="5.6" y="16.799999999999997" fill="#26a641" rx="0.26" stroke="#fff" stroke-width="0.1" />
      <rect width="1.3" height="1.3" x="7.0" y="16.799999999999997" fill="#39d353" rx="0.26" stroke="#fff" stroke-width="0.1" />
      <rect width="1.3" height="1.3" x="8.399999999999999" y="16.799999999999997" fill="#39d353" rx="0.26" stroke="#fff" stroke-width="0.1" />
      <rect width="1.3" height="1.3" x="9.799999999999999" y="16.799999999999997" fill="#26a641" rx="0.26" stroke="#fff" stroke-width="0.1" />
      <rect width="1.3" height="1.3" x="11.2" y="16.799999999999997" fill="#006d32" rx="0.26" stroke="#fff" stroke-width="0.1" />
      <rect width="1.3" height="1.3" x="12.6" y="16.799999999999997" fill="#006d32" rx="0.26" stroke="#fff" stroke-width="0.1" />
      <rect width="1.3" height="1.3" x="14.0" y="16.799999999999997" fill="#006d32" rx="0.26" stroke="#fff" stroke-width="0.1" />
      <rect width="1.3" height="1.3" x="15.399999999999999" y="16.799999999999997" fill="#006d32" rx="0.26" stroke="#fff" stroke-width="0.1" />
      <rect width="1.3" height="1.3" x="16.799999999999997" y="16.799999999999997" fill="#26a641" rx="0.26" stroke="#fff" stroke-width="0.1" />
      <rect width="1.3" height="1.3" x="18.2" y="16.799999999999997" fill="#26a641" rx="0.26" stroke="#fff" stroke-width="0.1" />
      <rect width="1.3" height="1.3" x="19.599999999999998" y="16.799999999999997" fill="#006d32" rx="0.26" stroke="#fff" stroke-width="0.1" />
      <rect width="1.3" height="1.3" x="21.0" y="16.799999999999997" fill="#006d32" rx="0.26" stroke="#fff" stroke-width="0.1" />
      <rect width="1.3" height="1.3" x="22.4" y="16.799999999999997" fill="#39d353" rx="0.26" stroke="#fff" stroke-width="0.1" />

      <!-- Row 14 -->
      <rect width="1.3" height="1.3" x="0.0" y="18.2" fill="#39d353" rx="0.26" stroke="#fff" stroke-width="0.1" />
      <rect width="1.3" height="1.3" x="1.4" y="18.2" fill="#26a641" rx="0.26" stroke="#fff" stroke-width="0.1" />
      <rect width="1.3" height="1.3" x="2.8" y="18.2" fill="#26a641" rx="0.26" stroke="#fff" stroke-width="0.1" />
      <rect width="1.3" height="1.3" x="4.199999999999999" y="18.2" fill="#006d32" rx="0.26" stroke="#fff" stroke-width="0.1" />
      <rect width="1.3" height="1.3" x="5.6" y="18.2" fill="#39d353" rx="0.26" stroke="#fff" stroke-width="0.1" />
      <rect width="1.3" height="1.3" x="7.0" y="18.2" fill="#26a641" rx="0.26" stroke="#fff" stroke-width="0.1" />
      <rect width="1.3" height="1.3" x="8.399999999999999" y="18.2" fill="#26a641" rx="0.26" stroke="#fff" stroke-width="0.1" />
      <rect width="1.3" height="1.3" x="9.799999999999999" y="18.2" fill="#39d353" rx="0.26" stroke="#fff" stroke-width="0.1" />
      <rect width="1.3" height="1.3" x="11.2" y="18.2" fill="#39d353" rx="0.26" stroke="#fff" stroke-width="0.1" />
      <rect width="1.3" height="1.3" x="12.6" y="18.2" fill="#26a641" rx="0.26" stroke="#fff" stroke-width="0.1" />
      <rect width="1.3" height="1.3" x="14.0" y="18.2" fill="#006d32" rx="0.26" stroke="#fff" stroke-width="0.1" />
      <rect width="1.3" height="1.3" x="15.399999999999999" y="18.2" fill="#006d32" rx="0.26" stroke="#fff" stroke-width="0.1" />
      <rect width="1.3" height="1.3" x="16.799999999999997" y="18.2" fill="#39d353" rx="0.26" stroke="#fff" stroke-width="0.1" />
      <rect width="1.3" height="1.3" x="18.2" y="18.2" fill="#39d353" rx="0.26" stroke="#fff" stroke-width="0.1" />
      <rect width="1.3" height="1.3" x="19.599999999999998" y="18.2" fill="#39d353" rx="0.26" stroke="#fff" stroke-width="0.1" />
      <rect width="1.3" height="1.3" x="21.0" y="18.2" fill="#26a641" rx="0.26" stroke="#fff" stroke-width="0.1" />
      <rect width="1.3" height="1.3" x="22.4" y="18.2" fill="#39d353" rx="0.26" stroke="#fff" stroke-width="0.1" />

      <!-- Row 15 -->
      <rect width="1.3" height="1.3" x="0.0" y="19.599999999999998" fill="#006d32" rx="0.26" stroke="#fff" stroke-width="0.1" />
      <rect width="1.3" height="1.3" x="1.4" y="19.599999999999998" fill="#39d353" rx="0.26" stroke="#fff" stroke-width="0.1" />
      <rect width="1.3" height="1.3" x="2.8" y="19.599999999999998" fill="#006d32" rx="0.26" stroke="#fff" stroke-width="0.1" />
      <rect width="1.3" height="1.3" x="4.199999999999999" y="19.599999999999998" fill="#39d353" rx="0.26" stroke="#fff" stroke-width="0.1" />
      <rect width="1.3" height="1.3" x="5.6" y="19.599999999999998" fill="#26a641" rx="0.26" stroke="#fff" stroke-width="0.1" />
      <rect width="1.3" height="1.3" x="7.0" y="19.599999999999998" fill="#26a641" rx="0.26" stroke="#fff" stroke-width="0.1" />
      <rect width="1.3" height="1.3" x="8.399999999999999" y="19.599999999999998" fill="#006d32" rx="0.26" stroke="#fff" stroke-width="0.1" />
      <rect width="1.3" height="1.3" x="9.799999999999999" y="19.599999999999998" fill="#39d353" rx="0.26" stroke="#fff" stroke-width="0.1" />
      <rect width="1.3" height="1.3" x="11.2" y="19.599999999999998" fill="#39d353" rx="0.26" stroke="#fff" stroke-width="0.1" />
      <rect width="1.3" height="1.3" x="12.6" y="19.599999999999998" fill="#39d353" rx="0.26" stroke="#fff" stroke-width="0.1" />
      <rect width="1.3" height="1.3" x="14.0" y="19.599999999999998" fill="#39d353" rx="0.26" stroke="#fff" stroke-width="0.1" />
      <rect width="1.3" height="1.3" x="15.399999999999999" y="19.599999999999998" fill="#006d32" rx="0.26" stroke="#fff" stroke-width="0.1" />
      <rect width="1.3" height="1.3" x="16.799999999999997" y="19.599999999999998" fill="#39d353" rx="0.26" stroke="#fff" stroke-width="0.1" />
      <rect width="1.3" height="1.3" x="18.2" y="19.599999999999998" fill="#006d32" rx="0.26" stroke="#fff" stroke-width="0.1" />
      <rect width="1.3" height="1.3" x="19.599999999999998" y="19.599999999999998" fill="#26a641" rx="0.26" stroke="#fff" stroke-width="0.1" />
      <rect width="1.3" height="1.3" x="21.0" y="19.599999999999998" fill="#006d32" rx="0.26" stroke="#fff" stroke-width="0.1" />
      <rect width="1.3" height="1.3" x="22.4" y="19.599999999999998" fill="#39d353" rx="0.26" stroke="#fff" stroke-width="0.1" />

      <!-- Row 16 -->
      <rect width="1.3" height="1.3" x="0.0" y="21.0" fill="#39d353" rx="0.26" stroke="#fff" stroke-width="0.1" />
      <rect width="1.3" height="1.3" x="1.4" y="21.0" fill="#39d353" rx="0.26" stroke="#fff" stroke-width="0.1" />
      <rect width="1.3" height="1.3" x="2.8" y="21.0" fill="#26a641" rx="0.26" stroke="#fff" stroke-width="0.1" />
      <rect width="1.3" height="1.3" x="4.199999999999999" y="21.0" fill="#26a641" rx="0.26" stroke="#fff" stroke-width="0.1" />
      <rect width="1.3" height="1.3" x="5.6" y="21.0" fill="#26a641" rx="0.26" stroke="#fff" stroke-width="0.1" />
      <rect width="1.3" height="1.3" x="7.0" y="21.0" fill="#006d32" rx="0.26" stroke="#fff" stroke-width="0.1" />
      <rect width="1.3" height="1.3" x="8.399999999999999" y="21.0" fill="#006d32" rx="0.26" stroke="#fff" stroke-width="0.1" />
      <rect width="1.3" height="1.3" x="9.799999999999999" y="21.0" fill="#006d32" rx="0.26" stroke="#fff" stroke-width="0.1" />
      <rect width="1.3" height="1.3" x="11.2" y="21.0" fill="#006d32" rx="0.26" stroke="#fff" stroke-width="0.1" />
      <rect width="1.3" height="1.3" x="12.6" y="21.0" fill="#006d32" rx="0.26" stroke="#fff" stroke-width="0.1" />
      <rect width="1.3" height="1.3" x="14.0" y="21.0" fill="#26a641" rx="0.26" stroke="#fff" stroke-width="0.1" />
      <rect width="1.3" height="1.3" x="15.399999999999999" y="21.0" fill="#39d353" rx="0.26" stroke="#fff" stroke-width="0.1" />
      <rect width="1.3" height="1.3" x="16.799999999999997" y="21.0" fill="#39d353" rx="0.26" stroke="#fff" stroke-width="0.1" />
      <rect width="1.3" height="1.3" x="18.2" y="21.0" fill="#006d32" rx="0.26" stroke="#fff" stroke-width="0.1" />
      <rect width="1.3" height="1.3" x="19.599999999999998" y="21.0" fill="#39d353" rx="0.26" stroke="#fff" stroke-width="0.1" />
      <rect width="1.3" height="1.3" x="21.0" y="21.0" fill="#006d32" rx="0.26" stroke="#fff" stroke-width="0.1" />
      <rect width="1.3" height="1.3" x="22.4" y="21.0" fill="#26a641" rx="0.26" stroke="#fff" stroke-width="0.1" />

      <!-- Row 17 -->
      <rect width="1.3" height="1.3" x="0.0" y="22.4" fill="#26a641" rx="0.26" stroke="#fff" stroke-width="0.1" />
      <rect width="1.3" height="1.3" x="1.4" y="22.4" fill="#006d32" rx="0.26" stroke="#fff" stroke-width="0.1" />
      <rect width="1.3" height="1.3" x="2.8" y="22.4" fill="#39d353" rx="0.26" stroke="#fff" stroke-width="0.1" />
      <rect width="1.3" height="1.3" x="4.199999999999999" y="22.4" fill="#26a641" rx="0.26" stroke="#fff" stroke-width="0.1" />
      <rect width="1.3" height="1.3" x="5.6" y="22.4" fill="#26a641" rx="0.26" stroke="#fff" stroke-width="0.1" />
      <rect width="1.3" height="1.3" x="7.0" y="22.4" fill="#39d353" rx="0.26" stroke="#fff" stroke-width="0.1" />
      <rect width="1.3" height="1.3" x="8.399999999999999" y="22.4" fill="#26a641" rx="0.26" stroke="#fff" stroke-width="0.1" />
      <rect width="1.3" height="1.3" x="9.799999999999999" y="22.4" fill="#39d353" rx="0.26" stroke="#fff" stroke-width="0.1" />
      <rect width="1.3" height="1.3" x="11.2" y="22.4" fill="#26a641" rx="0.26" stroke="#fff" stroke-width="0.1" />
      <rect width="1.3" height="1.3" x="12.6" y="22.4" fill="#006d32" rx="0.26" stroke="#fff" stroke-width="0.1" />
      <rect width="1.3" height="1.3" x="14.0" y="22.4" fill="#26a641" rx="0.26" stroke="#fff" stroke-width="0.1" />
      <rect width="1.3" height="1.3" x="15.399999999999999" y="22.4" fill="#006d32" rx="0.26" stroke="#fff" stroke-width="0.1" />
      <rect width="1.3" height="1.3" x="16.799999999999997" y="22.4" fill="#26a641" rx="0.26" stroke="#fff" stroke-width="0.1" />
      <rect width="1.3" height="1.3" x="18.2" y="22.4" fill="#39d353" rx="0.26" stroke="#fff" stroke-width="0.1" />
      <rect width="1.3" height="1.3" x="19.599999999999998" y="22.4" fill="#26a641" rx="0.26" stroke="#fff" stroke-width="0.1" />
      <rect width="1.3" height="1.3" x="21.0" y="22.4" fill="#26a641" rx="0.26" stroke="#fff" stroke-width="0.1" />
      <rect width="1.3" height="1.3" x="22.4" y="22.4" fill="#26a641" rx="0.26" stroke="#fff" stroke-width="0.1" />

    </pattern>

    <clipPath id="innerCircle">
      <circle cx="12" cy="12" r="10.87" />
    </clipPath>
  </defs>

  <!-- Heatmap circle as base -->
  <circle cx="12" cy="12" r="11" fill="url(#heatmap)"/>

  <!-- Black path on top (the cat will be the cutout showing heatmap) -->
  <path d="M12 1C5.923 1 1 5.923 1 12c0 4.867 3.149 8.979 7.521 10.436.55.096.756-.233.756-.522 0-.262-.013-1.128-.013-2.049-2.764.509-3.479-.674-3.699-1.292-.124-.317-.66-1.293-1.127-1.554-.385-.207-.936-.715-.014-.729.866-.014 1.485.797 1.691 1.128.99 1.663 2.571 1.196 3.204.907.096-.715.385-1.196.701-1.471-2.448-.275-5.005-1.224-5.005-5.432 0-1.196.426-2.186 1.128-2.956-.111-.275-.496-1.402.11-2.915 0 0 .921-.288 3.024 1.128a10.193 10.193 0 0 1 2.75-.371c.936 0 1.871.123 2.75.371 2.104-1.43 3.025-1.128 3.025-1.128.605 1.513.221 2.64.111 2.915.701.77 1.127 1.747 1.127 2.956 0 4.222-2.571 5.157-5.019 5.432.399.344.743 1.004.743 2.035 0 1.471-.014 2.654-.014 3.025 0 .289.206.632.756.522C19.851 20.979 23 16.854 23 12c0-6.077-4.922-11-11-11Z" fill="#1f2328" />

  <!-- White stroke on cat edges only (clipped to hide outer circle stroke) -->
  <g clip-path="url(#innerCircle)">
    <path d="M12 1C5.923 1 1 5.923 1 12c0 4.867 3.149 8.979 7.521 10.436.55.096.756-.233.756-.522 0-.262-.013-1.128-.013-2.049-2.764.509-3.479-.674-3.699-1.292-.124-.317-.66-1.293-1.127-1.554-.385-.207-.936-.715-.014-.729.866-.014 1.485.797 1.691 1.128.99 1.663 2.571 1.196 3.204.907.096-.715.385-1.196.701-1.471-2.448-.275-5.005-1.224-5.005-5.432 0-1.196.426-2.186 1.128-2.956-.111-.275-.496-1.402.11-2.915 0 0 .921-.288 3.024 1.128a10.193 10.193 0 0 1 2.75-.371c.936 0 1.871.123 2.75.371 2.104-1.43 3.025-1.128 3.025-1.128.605 1.513.221 2.64.111 2.915.701.77 1.127 1.747 1.127 2.956 0 4.222-2.571 5.157-5.019 5.432.399.344.743 1.004.743 2.035 0 1.471-.014 2.654-.014 3.025 0 .289.206.632.756.522C19.851 20.979 23 16.854 23 12c0-6.077-4.922-11-11-11Z" fill="none" stroke="#fff" stroke-width="0.2" />
  </g>
</svg>
